<mxfile host="Electron" modified="2023-11-12T00:50:58.271Z" agent="Mozilla/5.0 (Windows NT 10.0; Win64; x64) AppleWebKit/537.36 (KHTML, like Gecko) draw.io/22.0.2 Chrome/114.0.5735.289 Electron/25.8.4 Safari/537.36" etag="S2k8A-9Ov4s8geALuQ0F" version="22.0.2" type="device" pages="2">
  <diagram name="Page-1" id="WrR2ukpGDDsLhdqaSjRN">
    <mxGraphModel dx="842" dy="502" grid="1" gridSize="10" guides="1" tooltips="1" connect="1" arrows="1" fold="1" page="1" pageScale="1" pageWidth="1500" pageHeight="1500" math="1" shadow="0">
      <root>
        <mxCell id="0" />
        <mxCell id="1" parent="0" />
        <mxCell id="iFrKAZK5CEv6CmdW78d0-8" style="edgeStyle=orthogonalEdgeStyle;rounded=0;orthogonalLoop=1;jettySize=auto;html=1;exitX=1;exitY=0.5;exitDx=0;exitDy=0;" edge="1" parent="1" source="iFrKAZK5CEv6CmdW78d0-3">
          <mxGeometry relative="1" as="geometry">
            <mxPoint x="520" y="235.1960784313726" as="targetPoint" />
          </mxGeometry>
        </mxCell>
        <mxCell id="iFrKAZK5CEv6CmdW78d0-3" value="Unknown dynamic system" style="rounded=0;whiteSpace=wrap;html=1;" vertex="1" parent="1">
          <mxGeometry x="340" y="200" width="120" height="70" as="geometry" />
        </mxCell>
        <mxCell id="iFrKAZK5CEv6CmdW78d0-4" value="" style="endArrow=classic;html=1;rounded=0;entryX=0;entryY=0.25;entryDx=0;entryDy=0;" edge="1" parent="1">
          <mxGeometry width="50" height="50" relative="1" as="geometry">
            <mxPoint x="290" y="208" as="sourcePoint" />
            <mxPoint x="340" y="207.5" as="targetPoint" />
          </mxGeometry>
        </mxCell>
        <mxCell id="iFrKAZK5CEv6CmdW78d0-6" value="" style="endArrow=classic;html=1;rounded=0;entryX=0;entryY=0.5;entryDx=0;entryDy=0;" edge="1" parent="1">
          <mxGeometry width="50" height="50" relative="1" as="geometry">
            <mxPoint x="290" y="225" as="sourcePoint" />
            <mxPoint x="340" y="225" as="targetPoint" />
          </mxGeometry>
        </mxCell>
        <mxCell id="iFrKAZK5CEv6CmdW78d0-7" value="" style="endArrow=classic;html=1;rounded=0;entryX=0;entryY=0.75;entryDx=0;entryDy=0;" edge="1" parent="1">
          <mxGeometry width="50" height="50" relative="1" as="geometry">
            <mxPoint x="290" y="263" as="sourcePoint" />
            <mxPoint x="340" y="262.5" as="targetPoint" />
          </mxGeometry>
        </mxCell>
        <mxCell id="iFrKAZK5CEv6CmdW78d0-9" value="\(x_1(t)\)" style="text;html=1;strokeColor=none;fillColor=none;align=center;verticalAlign=middle;whiteSpace=wrap;rounded=0;" vertex="1" parent="1">
          <mxGeometry x="240" y="190" width="60" height="30" as="geometry" />
        </mxCell>
        <mxCell id="iFrKAZK5CEv6CmdW78d0-10" value="\(x_2(t)\)" style="text;html=1;strokeColor=none;fillColor=none;align=center;verticalAlign=middle;whiteSpace=wrap;rounded=0;" vertex="1" parent="1">
          <mxGeometry x="240" y="210" width="60" height="30" as="geometry" />
        </mxCell>
        <mxCell id="iFrKAZK5CEv6CmdW78d0-11" value="\(x_M(t)\)" style="text;html=1;strokeColor=none;fillColor=none;align=center;verticalAlign=middle;whiteSpace=wrap;rounded=0;" vertex="1" parent="1">
          <mxGeometry x="240" y="250" width="60" height="30" as="geometry" />
        </mxCell>
        <mxCell id="iFrKAZK5CEv6CmdW78d0-13" value="\(\vdots\)" style="text;html=1;strokeColor=none;fillColor=none;align=center;verticalAlign=middle;whiteSpace=wrap;rounded=0;" vertex="1" parent="1">
          <mxGeometry x="240" y="230" width="60" height="30" as="geometry" />
        </mxCell>
        <mxCell id="iFrKAZK5CEv6CmdW78d0-14" value="\(\vdots\)" style="text;html=1;strokeColor=none;fillColor=none;align=center;verticalAlign=middle;whiteSpace=wrap;rounded=0;" vertex="1" parent="1">
          <mxGeometry x="280" y="230" width="60" height="30" as="geometry" />
        </mxCell>
        <mxCell id="iFrKAZK5CEv6CmdW78d0-15" value="\(d(t)\)" style="text;html=1;strokeColor=none;fillColor=none;align=center;verticalAlign=middle;whiteSpace=wrap;rounded=0;" vertex="1" parent="1">
          <mxGeometry x="510" y="220" width="60" height="30" as="geometry" />
        </mxCell>
      </root>
    </mxGraphModel>
  </diagram>
  <diagram id="qb7vpGYX6-V1v1PNLmDR" name="error-signal">
    <mxGraphModel dx="795" dy="474" grid="1" gridSize="10" guides="1" tooltips="1" connect="1" arrows="1" fold="1" page="1" pageScale="1" pageWidth="1500" pageHeight="1500" math="1" shadow="0">
      <root>
        <mxCell id="0" />
        <mxCell id="1" parent="0" />
        <mxCell id="i6CGsaQ3u0MQ8RbkaiSG-1" value="" style="shape=umlActor;verticalLabelPosition=bottom;verticalAlign=top;html=1;outlineConnect=0;" vertex="1" parent="1">
          <mxGeometry x="235" y="220" width="30" height="60" as="geometry" />
        </mxCell>
        <mxCell id="i6CGsaQ3u0MQ8RbkaiSG-2" value="" style="shape=umlActor;verticalLabelPosition=bottom;verticalAlign=top;html=1;outlineConnect=0;" vertex="1" parent="1">
          <mxGeometry x="525" y="220" width="30" height="60" as="geometry" />
        </mxCell>
        <mxCell id="i6CGsaQ3u0MQ8RbkaiSG-3" value="I&#39;m here" style="text;html=1;strokeColor=none;fillColor=none;align=center;verticalAlign=middle;whiteSpace=wrap;rounded=0;" vertex="1" parent="1">
          <mxGeometry x="220" y="190" width="60" height="30" as="geometry" />
        </mxCell>
        <mxCell id="i6CGsaQ3u0MQ8RbkaiSG-4" value="I want to get here" style="text;html=1;strokeColor=none;fillColor=none;align=center;verticalAlign=middle;whiteSpace=wrap;rounded=0;" vertex="1" parent="1">
          <mxGeometry x="510" y="180" width="60" height="30" as="geometry" />
        </mxCell>
        <mxCell id="i6CGsaQ3u0MQ8RbkaiSG-5" value="" style="shape=crossbar;whiteSpace=wrap;html=1;rounded=1;" vertex="1" parent="1">
          <mxGeometry x="245" y="290" width="300" height="20" as="geometry" />
        </mxCell>
        <mxCell id="i6CGsaQ3u0MQ8RbkaiSG-6" value="How to interpret the error signal to make adjustments?" style="text;html=1;strokeColor=none;fillColor=none;align=center;verticalAlign=middle;whiteSpace=wrap;rounded=0;fontSize=20;fontStyle=1" vertex="1" parent="1">
          <mxGeometry x="247.5" y="30" width="310" height="60" as="geometry" />
        </mxCell>
        <mxCell id="i6CGsaQ3u0MQ8RbkaiSG-8" value="error" style="text;html=1;strokeColor=none;fillColor=none;align=center;verticalAlign=middle;whiteSpace=wrap;rounded=0;" vertex="1" parent="1">
          <mxGeometry x="365" y="280" width="60" height="20" as="geometry" />
        </mxCell>
        <mxCell id="i6CGsaQ3u0MQ8RbkaiSG-9" value="\(e(t) = d(t) - y(t)\)" style="text;html=1;strokeColor=none;fillColor=none;align=center;verticalAlign=middle;whiteSpace=wrap;rounded=0;" vertex="1" parent="1">
          <mxGeometry x="322.5" y="260" width="145" height="30" as="geometry" />
        </mxCell>
        <mxCell id="i6CGsaQ3u0MQ8RbkaiSG-10" value="\(d(t)\)" style="text;html=1;strokeColor=none;fillColor=none;align=center;verticalAlign=middle;whiteSpace=wrap;rounded=0;" vertex="1" parent="1">
          <mxGeometry x="510" y="305" width="60" height="30" as="geometry" />
        </mxCell>
        <mxCell id="i6CGsaQ3u0MQ8RbkaiSG-11" value="\(y(t)\)" style="text;html=1;strokeColor=none;fillColor=none;align=center;verticalAlign=middle;whiteSpace=wrap;rounded=0;" vertex="1" parent="1">
          <mxGeometry x="220" y="305" width="60" height="30" as="geometry" />
        </mxCell>
        <mxCell id="i6CGsaQ3u0MQ8RbkaiSG-12" value="(toy example)" style="text;html=1;strokeColor=none;fillColor=none;align=center;verticalAlign=middle;whiteSpace=wrap;rounded=0;" vertex="1" parent="1">
          <mxGeometry x="355" y="80" width="95" height="30" as="geometry" />
        </mxCell>
        <mxCell id="i6CGsaQ3u0MQ8RbkaiSG-14" value="" style="shape=umlActor;verticalLabelPosition=bottom;verticalAlign=top;html=1;outlineConnect=0;" vertex="1" parent="1">
          <mxGeometry x="235" y="500" width="30" height="60" as="geometry" />
        </mxCell>
        <mxCell id="i6CGsaQ3u0MQ8RbkaiSG-15" value="" style="shape=umlActor;verticalLabelPosition=bottom;verticalAlign=top;html=1;outlineConnect=0;" vertex="1" parent="1">
          <mxGeometry x="525" y="500" width="30" height="60" as="geometry" />
        </mxCell>
        <mxCell id="i6CGsaQ3u0MQ8RbkaiSG-16" value="I&#39;m here" style="text;html=1;strokeColor=none;fillColor=none;align=center;verticalAlign=middle;whiteSpace=wrap;rounded=0;" vertex="1" parent="1">
          <mxGeometry x="220" y="470" width="60" height="30" as="geometry" />
        </mxCell>
        <mxCell id="i6CGsaQ3u0MQ8RbkaiSG-17" value="I want to get here" style="text;html=1;strokeColor=none;fillColor=none;align=center;verticalAlign=middle;whiteSpace=wrap;rounded=0;" vertex="1" parent="1">
          <mxGeometry x="510" y="460" width="60" height="30" as="geometry" />
        </mxCell>
        <mxCell id="i6CGsaQ3u0MQ8RbkaiSG-21" value="\(d(t)\)" style="text;html=1;strokeColor=none;fillColor=none;align=center;verticalAlign=middle;whiteSpace=wrap;rounded=0;" vertex="1" parent="1">
          <mxGeometry x="510" y="555" width="60" height="30" as="geometry" />
        </mxCell>
        <mxCell id="i6CGsaQ3u0MQ8RbkaiSG-22" value="\(y(t)\)" style="text;html=1;strokeColor=none;fillColor=none;align=center;verticalAlign=middle;whiteSpace=wrap;rounded=0;" vertex="1" parent="1">
          <mxGeometry x="220" y="555" width="60" height="30" as="geometry" />
        </mxCell>
        <mxCell id="i6CGsaQ3u0MQ8RbkaiSG-23" value="" style="shape=image;verticalLabelPosition=bottom;labelBackgroundColor=default;verticalAlign=top;aspect=fixed;imageAspect=0;image=data:image/png,iVBORw0KGgoAAAANSUhEUgAAAPEAAAFpCAYAAABNic6TAAAACXBIWXMAAAsTAAALEwEAmpwYAAAAAXNSR0IArs4c6QAAAARnQU1BAACxjwv8YQUAAB0BSURBVHgB7Z3vWdtIF8WH99nvm1QQpwK8FdipALaCkApIKgAqYFMBpALYCjAVABVAGlhIBXrnCA0RxrZG1r3zT+f3PIoNARnLc3Tm3pm5YwwhhBBCCCGEEEIIIYQQQgghvdgxZCuqqprah5k93hlCBNnZ2Tnp9fOGdGIFC6HOzbNoId7pw8PDu8ViYeyjIaQv0+nUzOdz8+7dswc8PT2Z29vb+ntWxL10+Ychb2i5LB7n9gJPcIEhWhx3d3f1RSfEBwgV4pzNZrV4caD9XF5e1sK9vr6uH8H9/T3a3wer45++5x+9iFe5rL2gtcs64f786X09CalF6gTr3Na1pePjY3ETGJWIG8FCqLum5bLOYXGh6bKkD+tc1rUpiLaPCTRt77096MTAinZinl3WiZYuSwah7bLN7/7Z53eKEfGSy87Ns8u+o8uSbZF2WR+a9jmxx7Xv72Qr4iWXhWDhssYddFnSl1Uu6wSLJFQIE9jm/FmIeJXLuiEeJ1q6LOnDKpfFcKGmy/rQtOFecw+SFPEml8UFRkqegiV9SMFlfchSxC2XnZtmmKftsu0xNEJ8SNVle5C2iNdNpKDLkm2AYCHS3d3d5F3Wh+bmko6IN01XpMuSbZhMJrVQnWgzdFlxREXM6YpEktJc1odmLv6kx69sL2JOVyTS0GW3w0vEnK5IpBmjy/og5sScrkikabssHiHcdqhFl92eN+sWrYCP7MOxIUSQ9nRF9tzWg97I4+Pj087OznuzLVbEh6enpxWe8uAhcRweHlZsU/4HMD3434rv/XLVBgiR4NevX4Ztyh/0UJo8lBf/M4SQpOi7HHGViB+QhCBECjRKOrEedGKiDkXcj77DTHRiog5F3I++K5noxEQdirgfEiJ+4gUnJB/ezNiyg8xPPYepCNkInbgfEjExoBsTMShiXdaK+M8/e1XNJIQI0cwhn/j+PBNbJAjoIn748MEQedaJmMNMhESCQ0wkSdAw37/ffmHOmJASMZ2YiIKGyTyLH3RikizMUPshJWIOMRFRkNhim9KBIiYkMTjZgyQJJ3zosU7ErO5BRKGI+wE3rqrKa2CdiS1CModDTCQImErINuVPk6H2GlinExOSIH3qbNGJSTAYE/vTJ0NNJyZB4DixHhxiIiRB+szaWrkXE6t7EGngxAzR/Okj4k3daboxIZEQEzFXnRApONmjH9j6xgiImBAxKGI9NomYw0yERIJDTCRJWGdLBzoxIQlCJyZkRHCIiQSDY8X+NENME5+fpYgJSZBGxF5QxCQYdOJ+QMhVVXWKcJOIWd2DkIj4Lkf8w2TE0dGRkeTk5MSkiPS89Z2dHUOyBYUBfm76gU0iTm6I6fj42EiSqohLhd3pfjTXq9OJOcRESKL4LoLgZA8SDNbZ6oeEiAkhGcAhJkISxXfq5VoRo7oHRUwkYWJLh67uNIVMSCSQQzBDnLiB1T2IGHRiHZjYIiRRpLLTHGYiJBIcYiLJwe50P3yXI9KJCUkU3+WIdGISFFa99EeqO80hJiIKGiZHPPygiAkphK7CABQxCQqTW/1opl5u7Lp0iZjVPQhJHCa2SFAQ59GJ/fFZBMEhJhKUPlUciR9Z1diSLs+TKqyJRRwtJ75e9zNdIk7KiVkTK3+Y2JKHMTEhCeMzVswhJhIUztjqh4+IN3anUd1DugYyGTe/fv2iiHsg4cT1eXjRCYkDbnpGQsSc60qk4DixPExskaBwnLgfEpM96vPwzkmkYGKrH1IxMSFiUMT9kBIxnZiQhKETk6BwxlY/pGJiDjERkjAUMQkO4+J+wI2rqvqw7v8pYhIc1tmSxUfErO5BSESaDPX7df/PxBYJDhrl+/fvDfGjEfHarguHmEhw2J3uR9dYMZ2YBIeJrX5IiJhOTEShiGWhExOSOF0TPjjERIJDJ5als9olq3sQaSjifvz8+RMPk3X/79udphsTMShiWbxFzCEBIgXrbPWDQ0yEZI6UiDnMRMRgd7ofEtlpQkShiGWhE5PgUMT9YExMkoMi7oeUiDnEREhEIOSqqlaKkCImwaET92fTckSKmASHIpbFV8Ss7kFIRDYNMzGxRaKARvnhwwdDhsMhJkIygE5MkoN1tuSgE5MosM5WP5rs9GTV/9GJSTSYLPVn05awHGIiUUCMxzblz6ZZW52VPQCrexASF6zBNmtE3Kc7TTcmYnDCx1YMFzETEUQKirgfzRDTYBETQiKxKSbuI2IOMxExUMGR7ckfKRETQhKETkyiwZjYD1yn6XSKp5NV/+81xESINBwnXo0T7O7ubv04n88RdqAvfdscb+gjYg4xESIMhIpjNpu55xDsgz0W5lm0i52dnZ+bzkERkyjAiccWnuH9wlmdy+KwmnowvwV7bQV72/e8FDEhCrS7xRAuDvs9uOzC/BbtHWZDmoH0ETGrexAxSprsgfcBl3Vd4hVx7AKPXd3ibWFii0QhZxG3u8WNYPFeXsRqPOJYSfqImENMZHTgRgOhthJPy3GsWLd4W+jEJBquzlaz/250NgzvLMxvwV7HFOwq6MRktKwZ3rltHUG7xdtCJyajQGt4JwU4xESi4caKpbvTa4Z3HkwrU2wix7GSeIvYVffAgcxiu+bP8tegWf+49uvlD275/31eg5DYwzsp0Ks7bS/EDh6xsZOlXSEAtUeXKwZMBn79zrxeevXqa95I8sc58fX1tffvLA/vNAsDog3vpMBWMXHTDWm35lUXzf+T2QLhG8nENqj5sohxl2+HEMtf80aiSw7DOymQbWJL8kZibwj7t7e387///tv0AY2sXbIIxdCXSxgtZ/SXv0YDbfP58+c3rzGGG8lyHNsI1iwWi/rvsd/DC34cu2BXsWMIRDy3jeXq06dPJjf63EjOz8/NwcFB541l+WutG0mTcHo57I305YB42zcX5GJcOEdew4ti6gaC7vT9x48fTck0QjDSDOmRQOyIiSHcTVDEZCMQ8f39PQprF308Pj4ikZDV3+wOfD6WD4a8gZM9nhnFGLjb/2gsiTHcnM3ziAZS2OgaZDuhYxMUsRnXDhfo6qYyV7kPrQ3F6j8eoxPmt0Dx+KH5/5cDcTd+rxmGAuf2+GIKY5Qibu7Qc/P7g8fzOrYr2aXQqHPZAAAxszuwSKLpKf3jxGs/Jxx1LI1HvLf24UriXlxcmMvLS3NycmJubm7mpkBGIWL7wR+Z32Kt79Bu6MI9x1F6VzPFNbzIUO/t7b0MMbkZWMuiPD4+xt8/hWixL1HX5/T161dzeHho/vnnH/P9+/f6e/Y8E8TVY5sMkj1w3arBjsFuTJzYRpR8gmfIcXZ2tvEahD6swOrrbsVW/124/tZ1B50TiTvrvpV13creDN68fzQDQ/ICEzmurq4qe8evG8zp6enKDC1+ZjabRWvQIQ68dwgm9t8BcUFkuOaS2fKuz9iOkUPEZ6YwxrADxK7rLv/111/1N2wDqrtxbVLsakqTwntEN9eKt554gsk1UuELus3WaevJLN++fVt5XrQB0+Q/SEbYO++Vjbk679ipdTU1Drgw3nOM18Z1tsIVD1vg6nB0HMvd51VHiePNY3Di6d3d3atvdLlyqSAhFMOJcX1xnR8fH+vr3jU7yxfn6sg+w9WXp3augm6cGUhqYZaSMd1xFI6joyMVF0rlQEyIHkfI17RCq2eK7e/vi50Tru6SYn1dvcS4uHQnnnbd9Z0rS7lDyoTcdQGvA5fE8BGuL9xSAufqmJyzzedGJ84MjA/7umsMlwp9wLWQFdZ+Hbgu3Fc6Ey7l6qXFxaVP9piPwWF90c5O49yYlAH3tULrVbFjE3B1ZJ4B3Ncn9t0E3NjetOf26Q9TAMV3p5eTWusI2dWMiZaIMdsK3VzMeoPQpASMmwHO2yd51UXzt81NIRTrxEhqYX6txIdeClp7Aq+a4tgXdwN186UBqp4gBoZ4JXtUpcXFJXenJ30++LE4setSS0yywHmwwACPyy7Z7E/08giHbn+9/Nz9rpsrDeDC0gJuvUYx86hLFvGsueOSFlJritF9hoAhRHR1nZjbonRletrP3WfixNq1mAE1tzTyGiXFxSWLeNrnw0dDGoMTS4Gubmt1Ub30D5M5fFYY+YLYFd3pHz/kdYZzl5TcKhLbVbr3mYbXPqrnygBFH1ILPXBttUsaab4Gzo02YgqgyOw0Fo5bN5j0TWrBQbAAvWSkhplckkxzyMp9fhqfSTsuNplT6hDTdJs4agy1pyTHihFXYkxYE7yG1tz2UrLUpYp4q6QWGjhqUBE/cI1b9atUcHGx1rkNRZwsWztxLjWotkVyKA0TabRXgNGJuylWxNtUdGRhgH7gRunGerVgXNxNcSJ2Sa1tnbh0EUuuKXbVJrW71HTjzZToxNNtJweMQcTS4FovbwonDePizZQo4hlFvB7p6aWaAnPQiTdTpBNvO92SMXF/QmSoGRdvpkgRb7tNSawaVCGRFrGbE824OB5FiXhIUotsDxZAMC6OR2lOPB0i4DEsR9R4jxgvphPHozQRz4a68Fiy09JxsXZyi3Hxeopz4iFriLUqX6SG9O6I7rppLx6hG6+mOBHnuPduCSAu1nZjxsWrKUbEEkmtMcTEQON9cuZWPEpy4imz0n5ojIeHmPTBuHg1JYl4JiFifJgsDNCfEIshAN34LUU58ZCkFhkO51HHoSgRSyS1xlAYQCv2DzHURCd+SxEilpypNYbCAFrAyTiPOjylOLFYUmsMGWr0WDTeY4gMNaAbv6YUEc+YmY6PKxTP8eKwFOPEUkktrikeBj4H7NqgCZ34NaWIeCI1U2ss1T203mOI4nmMi1+TvYibpJZYTDwWJ9Z6jyGmXwK68W9KcGLRmVpjKAygiSsSoD1hhnHxb0oQ8S6TWv3QzsBzvDgsJYh4LjlTayyLIDTBTZVxcThKEPFEcvnhWBJbmnPE//33X8bFAclaxNJJLcDa08MJsWMiYFz8TO5OzOWHWxIiLtZeDEEnfiZ3EYsntRgTy8C6W+HIXcSiSa0xoX2zClEBE9CN8xfxRKOmVohxztJxiyEYF+uTrYg1klogRHWKFNB2Yu6YGI6cnVglqeUadumFAUKAz0d7MQTj4rxFrDJTyzW60gsDaK0pboPu6P7+vtFm7G6cs4hVklquYTNDPZwQOyaCscfFOYtYJamFRue6aCWDmFX7RsUdE8OQpYi1kloADQ4f3Bi2OA1BiEkfY4+Lc3ViFQE74Wqut02FUJNaQhTPA2N241xFvKvlwjgv50/LEWLmFhhzXJyriFWSWhAuBDyGwgChnJg7JuqTq4hVklqI3ZzD04nl4DxqXbITsXZSC+cdQ0wMNNcUtwk11DRWN87RidWWH0K4cHjGxLKE2DFR+3Vy3r84OawTH56enlZ4Kn0APNpYsbq/v1d5jZSOm5ubyjpkkNd6fHys7I1R9TU0Pzec23JvEiRHJ1ZJarmu9JgIue9UiMUQY42LcxSxSlILmVrXCMZSGCDk+4SI9/b2jDZjjIuzErFmUgsLH1jqRw8Uz+M8ah1yc2K1pNZydzpU5jYmIeZPO7hjoh65iVitUDwac6j5xKkQ8v2G2jFxjHFxbiJWSWoBiBh1oRzcp1ieEDsmutcZkxvnJmK15Ydu2RzRI8SOiWBscXE2ItZMamFix/Ia4jE4cehJLaEWQ9CJ00UtqTXWzHRoEePGGKKS6Nji4pxErJrUWnbikJnbWMTobdCN5clJxGpJrVWztRgf6xBix0Qwprg4JxGrJLUARNzOTIMxOHGMhR6hFkPQiRMDSS2jXJJn2XlRGKB0YogYn2GIHRPHFBfn4sTTkF1pwH2K9cD11i6eB8bixrmIeFczM70q/uWaYj0uLy8ZFwuSi4jnmpnpVS4/FhHjfYbesoY7JsqSi4gny4knKcbenQ65ptjhMtSMi2VIXsSaSS2AhrQqiTWmmDh0Fh7XlnW35MjBidWSWvXJR+7EsQixYyIYQ1ycg4h3Q60hXmYMQo71HjleLEcOIp6HnG7ZJka8GJpYIg41/XIMcXEOIlZLarEkT7yZaaF2TASlu3HSItZOanV1p8ewHDHmzLQQOyaC0uPi1J1YNakFgXbNx2ZMrAd3TJQhdRHvanZ3uzYUH8N2LjFFzLhYhtRFPNfuSo99yWHMkCHUjomgZDdOXcRqSS23jekmxhATx4b7Fw8nWRFrJ7WYmX4m9lg4Z24NJ2UnVp+ptSkeBqFLusYgtohDVcAsOS5OWcSqSS2Ik078TOzkFj6LEK9fqhunLOK5dma6K97mSqYwhNripdS4OGURqya1QFdii2uKw8BKH8NIUsSxZ2o5xpKdju3E2DGRcfH2pOrEqkktZqZfE7uyZ6juNCjRjVMVsXpSqyszDcbUnY79+vg8GBdvxx8mTabaSS0Ua+vCifjm5sZ1l+pkGB5Lmu2Vws3KLYbQ7iHhdY6OjowGsZw4WRFrJbUAnNh39c7Ozk4tesRReNzb26sbvHMNNDocTuAQRG5d9RREjGsXIrnVjoulNyNox8W23ejsdJAL9iJUeNA4bGOtJM5/cHBQXVxcVLbhVYeHh9Xp6Wl1dXVVWdeuz49H/L+961f7+/uV7cLVr631voYc7u+P9fq4LrhGj4+PQV7v7Oys+vz5s9q5LZ9NQJJzYnsB5jFqam0DHAxxUBMLvXkd5962wSTt3uiVhHJidx2QXMSjOyy4ABN7zd5pbdfjcHHxjx8/jDQ4t73Bz+1T+ZOvIcXutGpSa9VexBo4oWL4ZPn1XQNGt946UP3oZpC5eNvF3m47UE20utPLgnVlavGeXJbYvu8D+6P/2u7nk72Bn9nvHWiIq01pcXGKIp5qikxqeAnjqtsMy6xzbzRunA/ujaQbDnzt5ng7cTv3lkysSYjY/a34+yFOPMc53c0Mjfv4+PhVHNrcyB4g4OZbt/ietohLi4uTFLF2Zvr8/NwMRXpc1XWpnTi/fPnyIlL8zbhpOPf++vVr/eh+xz22M+d9X7uPiPHaECpuiO45gFDx+rgB4W/sEkjz/tovfI2eybdv34w2riegccPAuUN2qZMU8aoYUwqfkjw+OKfRwM2gciJ2onTXBa+LhoKuOoTkuq2IvZ0jtsXd5d6bRNwWrItf3XnxN+DwEey692laIrbOdWsd7Mn+Le+0Q4iS4uKkRIyklnaCRyqx5RpzTFzXHCzH3svuDYdrJ9ba7u1E7EQKwTbx6stuDfhZOKz7eUVubcZ/vvx+pCkpLk7NidVrakkJ+NksnqIMrvpMk1x2b4dLrDnHdu6N79vhkZd9khC/QkgRblSX9vXVRVxSXJyaiFXjYecsEuexPNgjzITfJYa8h3ZibV1X0o53B8uKm9cxMbgLPY8697g4tbnTqiKWykw3M4suS13hFGoG1xoR32rmG9qUMo86ORFrJrUku9OWhVGia32vtshiTsPEcJN97VvW3fInGRGHSGpJTfRoGpja5O6u9b0hZ1hFYhFix8RS1hen5MS72jGYT0meLpok0FMzQeEhRM3kUlnTnQbXIYoEgBLcOCUR39mL+YCkikas6VuSp4vmb9PtMoyEZiXZKhEvQom4hLg4GRFbZ1vY46O9oF/u7+8fMNwhKWapeLhJakUVsXbMGrssURMXP3BnCD+Sq+xhP8Bz+/DJpuePrZjr8UqJBiWVmV5Kaj1pFJjrEmkK638DsMAEFW1KiIuTLM9jhYxJ8Sf26cejo6NzdLExKWEIviV5fM5jcQP4TxoF5kYi0k0xMbhm3S0/Uq2xVdOI+YsVzsfz8/MFnHlbMUt0p5upiUhqFd2dDkWHiBkXe5K0iB2NmD9ZMX+xYt4q+eWzbYvPOczrePghRuyoLeIUtq/BZ27/hifuDNFNFiJ2IF7eJvnlGsLQObLN2CUz0+FYoKaZNrnHxVmJ2NE3+SWVmW7u1hSxEI14Jht+ZFFCXNy0vblRIksRgz7JL5+9iH1oLXxwqHT3uoZ4Yg8BBeQu57gY50O7tFn2hVGc4ZetiB0+ya9thpcgEuv09ZpTdNtxXriCfa325O6nErPIsXeEaIE51NnFxWg3aC9WwEjOzZHP0UyGplp3ujcQs334ZGOPAyvmI3shJyhx43YWWFeSx1WuQDzknrccd9E81s/HUks4drEDR1M8D0Kea1ZABRLri91N37afhf3yeOmGr0YxInY08fI5xGzvhkdWvBMXV+EiC4s1mhO7DHUqgtsGj5gY1JU+tEUMtllfjM8APb+m7tnCBBSvozgROyBmK+SFFS761seXl5cPRt5Zf8UUcbsOV8FgMcTXk5MTo02fulv43CHcw8NDPF+YCOJ1FCti0HSxT5ojG2LHpIklzoJmqLvqbqUkXkf2ia0SGcF64Rdww2r2o16JWwwRQsibxovxeWAoEwkrjIbYr13CKqqAAUU8jIdYjtVV/SMXmnCgawL6ZYjN1sBylnqFeD9iNCQF8TqK7k6XTFf1j8IIVjzPxcWottnqNp/b/zppwrPkoIiHUew4cWLvq16WKLEKrQu8b7zW3t4elpn+Y7/1vbXNTJJQxMOIPsSU27m3AQ5o4+ZjdGsDAdH+SF28Doo4QXxEVMpyxCYTPjG/12ivpJliS1bAxFaCjKUoAJGBTjyApptnSqSEGWFjgU6cKdoTMkJlvzuqexAPKGISFYp4OBTxcMRLqzImJn2giBMkhex0KTPCxgBFnCna86sZE+cDRTycJzrW9lDEw6GIh/M0ojnMJEEo4kwJMcTE5FoeUMTDEV+OmEKhulAibupZTQzZGoo4QThLivSBIs4UdneJgyIeTpTliCFEzJtEHlDEwymyMAASZyHel2fZWrIBijhR2F0mvlDEw1Fx4q4ZUyPaj4l0QBEP51epjhnifXHG1nAoYrISjN9SxHlAEWcM42YCKOLhRC0gz3nbhCJOFK7nJb5QxMOJkp3WJlT2m+PEw6GIhxNtsgeHmQigiAnJHIqYRKdre1OyGYp4ICggr9Gl9Rk+0uxOh+yqe25vStZAEScKx4CJLxQxIZlDEcsgXkB+TDTdaQ6KbwlFnDGMiQmgiAnJHIpYBvEC8kxsEV8oYhnEC8insB9TKDj1chgUccZo78cEcTFhlz4UsQwPnMNMYkERE5I5FHGixJ52GRLGxMOgiGUQX46oHe/6wMIEeUARy1BkAXmW/8kDijhjWBSAAIpYhiKdOBTc3nQYFLEMRRaQT2GfZNINRZwoKczG4j7JeUARJ8qYhpjIMChiGThjawAcJx4GRUzWwpVUeUARyxAtOw2haS1SoIjzgCKWQVzEvgIqIfnEnRGHQREnyphckCIeBkVM1sLudB5QxAJoFZD3QXOYKYVFGKSbPwwR4+rqytze3prr6+taXHhOumF3ehgUsRDWjXeqqprN5/Pp169f5/ZbE9s4pxDyYrGohY3nnAX1Fop4GBSxIFbH1/YBx3d8jU3CrKh37TG3X+KAqN/BpSHsu7u7+nEVm+JRnA7HbDarH9Gdxk0iR/D37+3t4SnvbiQPrLCn9tizx6k9rir8c3VVnZ6eVvv7+9V0Oq3wY88/WtWPVszVwcFBdXZ2Vj0+PuLb983vz+xx8fnz55ffkTyswOq/Tfq8eD+Hh4f1uS039jjirogkaxoxHkKQaNQQatPA3eNj83+Hy43dfn2Wi4hxPtys/vvvP/d+ZoaQEoFQW8Kedfxs0iJect1Huq48jIkTxMbWiA9dfN2F2vDWkHFiF+vaMADnWNhvHTc5A0JIGzjb/f19dXFxUTteO6YeetibQ4VzG7ouIbpYoUyaZNlZO6Y+Ojqqu8QQl1EUsYt1m6TbFWNdQgbSxNRrM+AQpxkoYrouIYFpJcqgusebm5t6yApJsXVd8FUixs8eHx/TdQmJTTNefdAM9dxDlC6uRvfYNKIFcF04OF2XkIRpxdWny2PVdF1CMmRprJquSwghhBBCCCGEEEIIIYQQQgghhBBCCCGEmP8DJNkUOzUDMysAAAAASUVORK5CYII=;flipH=0;" vertex="1" parent="1">
          <mxGeometry x="613.29" y="480" width="73.43" height="110" as="geometry" />
        </mxCell>
        <mxCell id="i6CGsaQ3u0MQ8RbkaiSG-24" value="the error only tells me how far I am from my target but not how to reach it." style="shape=callout;whiteSpace=wrap;html=1;perimeter=calloutPerimeter;" vertex="1" parent="1">
          <mxGeometry x="600" y="385" width="140" height="95" as="geometry" />
        </mxCell>
        <mxCell id="i6CGsaQ3u0MQ8RbkaiSG-25" value="" style="curved=1;endArrow=classic;html=1;rounded=0;dashed=1;" edge="1" parent="1">
          <mxGeometry width="50" height="50" relative="1" as="geometry">
            <mxPoint x="270" y="523" as="sourcePoint" />
            <mxPoint x="520" y="533" as="targetPoint" />
            <Array as="points">
              <mxPoint x="320" y="463" />
              <mxPoint x="450" y="463" />
            </Array>
          </mxGeometry>
        </mxCell>
        <mxCell id="i6CGsaQ3u0MQ8RbkaiSG-26" value="should go in this way?" style="edgeLabel;html=1;align=center;verticalAlign=middle;resizable=0;points=[];" vertex="1" connectable="0" parent="i6CGsaQ3u0MQ8RbkaiSG-25">
          <mxGeometry x="-0.0146" relative="1" as="geometry">
            <mxPoint as="offset" />
          </mxGeometry>
        </mxCell>
        <mxCell id="i6CGsaQ3u0MQ8RbkaiSG-27" value="" style="endArrow=classic;html=1;rounded=0;dashed=1;" edge="1" parent="1">
          <mxGeometry width="50" height="50" relative="1" as="geometry">
            <mxPoint x="270" y="530" as="sourcePoint" />
            <mxPoint x="520" y="540" as="targetPoint" />
          </mxGeometry>
        </mxCell>
        <mxCell id="i6CGsaQ3u0MQ8RbkaiSG-28" value="or this one?" style="edgeLabel;html=1;align=center;verticalAlign=middle;resizable=0;points=[];" vertex="1" connectable="0" parent="i6CGsaQ3u0MQ8RbkaiSG-27">
          <mxGeometry x="-0.2067" y="1" relative="1" as="geometry">
            <mxPoint x="26" y="2" as="offset" />
          </mxGeometry>
        </mxCell>
        <mxCell id="i6CGsaQ3u0MQ8RbkaiSG-29" value="" style="curved=1;endArrow=classic;html=1;rounded=0;dashed=1;" edge="1" parent="1">
          <mxGeometry width="50" height="50" relative="1" as="geometry">
            <mxPoint x="270" y="537" as="sourcePoint" />
            <mxPoint x="520" y="547" as="targetPoint" />
            <Array as="points">
              <mxPoint x="300" y="627" />
              <mxPoint x="360" y="567" />
              <mxPoint x="410" y="657" />
              <mxPoint x="450" y="617" />
            </Array>
          </mxGeometry>
        </mxCell>
        <mxCell id="i6CGsaQ3u0MQ8RbkaiSG-31" value="what about this?" style="edgeLabel;html=1;align=center;verticalAlign=middle;resizable=0;points=[];" vertex="1" connectable="0" parent="i6CGsaQ3u0MQ8RbkaiSG-29">
          <mxGeometry x="-0.0624" y="-4" relative="1" as="geometry">
            <mxPoint x="11" y="19" as="offset" />
          </mxGeometry>
        </mxCell>
        <mxCell id="i6CGsaQ3u0MQ8RbkaiSG-32" value="" style="shape=image;verticalLabelPosition=bottom;labelBackgroundColor=default;verticalAlign=top;aspect=fixed;imageAspect=0;image=data:image/png,iVBORw0KGgoAAAANSUhEUgAAAPEAAAFpCAYAAABNic6TAAAACXBIWXMAAAsTAAALEwEAmpwYAAAAAXNSR0IArs4c6QAAAARnQU1BAACxjwv8YQUAAB0BSURBVHgB7Z3vWdtIF8WH99nvm1QQpwK8FdipALaCkApIKgAqYFMBpALYCjAVABVAGlhIBXrnCA0RxrZG1r3zT+f3PIoNARnLc3Tm3pm5YwwhhBBCCCGEEEIIIYQQQgghvdgxZCuqqprah5k93hlCBNnZ2Tnp9fOGdGIFC6HOzbNoId7pw8PDu8ViYeyjIaQv0+nUzOdz8+7dswc8PT2Z29vb+ntWxL10+Ychb2i5LB7n9gJPcIEhWhx3d3f1RSfEBwgV4pzNZrV4caD9XF5e1sK9vr6uH8H9/T3a3wer45++5x+9iFe5rL2gtcs64f786X09CalF6gTr3Na1pePjY3ETGJWIG8FCqLum5bLOYXGh6bKkD+tc1rUpiLaPCTRt77096MTAinZinl3WiZYuSwah7bLN7/7Z53eKEfGSy87Ns8u+o8uSbZF2WR+a9jmxx7Xv72Qr4iWXhWDhssYddFnSl1Uu6wSLJFQIE9jm/FmIeJXLuiEeJ1q6LOnDKpfFcKGmy/rQtOFecw+SFPEml8UFRkqegiV9SMFlfchSxC2XnZtmmKftsu0xNEJ8SNVle5C2iNdNpKDLkm2AYCHS3d3d5F3Wh+bmko6IN01XpMuSbZhMJrVQnWgzdFlxREXM6YpEktJc1odmLv6kx69sL2JOVyTS0GW3w0vEnK5IpBmjy/og5sScrkikabssHiHcdqhFl92eN+sWrYCP7MOxIUSQ9nRF9tzWg97I4+Pj087OznuzLVbEh6enpxWe8uAhcRweHlZsU/4HMD3434rv/XLVBgiR4NevX4Ztyh/0UJo8lBf/M4SQpOi7HHGViB+QhCBECjRKOrEedGKiDkXcj77DTHRiog5F3I++K5noxEQdirgfEiJ+4gUnJB/ezNiyg8xPPYepCNkInbgfEjExoBsTMShiXdaK+M8/e1XNJIQI0cwhn/j+PBNbJAjoIn748MEQedaJmMNMhESCQ0wkSdAw37/ffmHOmJASMZ2YiIKGyTyLH3RikizMUPshJWIOMRFRkNhim9KBIiYkMTjZgyQJJ3zosU7ErO5BRKGI+wE3rqrKa2CdiS1CModDTCQImErINuVPk6H2GlinExOSIH3qbNGJSTAYE/vTJ0NNJyZB4DixHhxiIiRB+szaWrkXE6t7EGngxAzR/Okj4k3daboxIZEQEzFXnRApONmjH9j6xgiImBAxKGI9NomYw0yERIJDTCRJWGdLBzoxIQlCJyZkRHCIiQSDY8X+NENME5+fpYgJSZBGxF5QxCQYdOJ+QMhVVXWKcJOIWd2DkIj4Lkf8w2TE0dGRkeTk5MSkiPS89Z2dHUOyBYUBfm76gU0iTm6I6fj42EiSqohLhd3pfjTXq9OJOcRESKL4LoLgZA8SDNbZ6oeEiAkhGcAhJkISxXfq5VoRo7oHRUwkYWJLh67uNIVMSCSQQzBDnLiB1T2IGHRiHZjYIiRRpLLTHGYiJBIcYiLJwe50P3yXI9KJCUkU3+WIdGISFFa99EeqO80hJiIKGiZHPPygiAkphK7CABQxCQqTW/1opl5u7Lp0iZjVPQhJHCa2SFAQ59GJ/fFZBMEhJhKUPlUciR9Z1diSLs+TKqyJRRwtJ75e9zNdIk7KiVkTK3+Y2JKHMTEhCeMzVswhJhIUztjqh4+IN3anUd1DugYyGTe/fv2iiHsg4cT1eXjRCYkDbnpGQsSc60qk4DixPExskaBwnLgfEpM96vPwzkmkYGKrH1IxMSFiUMT9kBIxnZiQhKETk6BwxlY/pGJiDjERkjAUMQkO4+J+wI2rqvqw7v8pYhIc1tmSxUfErO5BSESaDPX7df/PxBYJDhrl+/fvDfGjEfHarguHmEhw2J3uR9dYMZ2YBIeJrX5IiJhOTEShiGWhExOSOF0TPjjERIJDJ5als9olq3sQaSjifvz8+RMPk3X/79udphsTMShiWbxFzCEBIgXrbPWDQ0yEZI6UiDnMRMRgd7ofEtlpQkShiGWhE5PgUMT9YExMkoMi7oeUiDnEREhEIOSqqlaKkCImwaET92fTckSKmASHIpbFV8Ss7kFIRDYNMzGxRaKARvnhwwdDhsMhJkIygE5MkoN1tuSgE5MosM5WP5rs9GTV/9GJSTSYLPVn05awHGIiUUCMxzblz6ZZW52VPQCrexASF6zBNmtE3Kc7TTcmYnDCx1YMFzETEUQKirgfzRDTYBETQiKxKSbuI2IOMxExUMGR7ckfKRETQhKETkyiwZjYD1yn6XSKp5NV/+81xESINBwnXo0T7O7ubv04n88RdqAvfdscb+gjYg4xESIMhIpjNpu55xDsgz0W5lm0i52dnZ+bzkERkyjAiccWnuH9wlmdy+KwmnowvwV7bQV72/e8FDEhCrS7xRAuDvs9uOzC/BbtHWZDmoH0ETGrexAxSprsgfcBl3Vd4hVx7AKPXd3ibWFii0QhZxG3u8WNYPFeXsRqPOJYSfqImENMZHTgRgOhthJPy3GsWLd4W+jEJBquzlaz/250NgzvLMxvwV7HFOwq6MRktKwZ3rltHUG7xdtCJyajQGt4JwU4xESi4caKpbvTa4Z3HkwrU2wix7GSeIvYVffAgcxiu+bP8tegWf+49uvlD275/31eg5DYwzsp0Ks7bS/EDh6xsZOlXSEAtUeXKwZMBn79zrxeevXqa95I8sc58fX1tffvLA/vNAsDog3vpMBWMXHTDWm35lUXzf+T2QLhG8nENqj5sohxl2+HEMtf80aiSw7DOymQbWJL8kZibwj7t7e387///tv0AY2sXbIIxdCXSxgtZ/SXv0YDbfP58+c3rzGGG8lyHNsI1iwWi/rvsd/DC34cu2BXsWMIRDy3jeXq06dPJjf63EjOz8/NwcFB541l+WutG0mTcHo57I305YB42zcX5GJcOEdew4ti6gaC7vT9x48fTck0QjDSDOmRQOyIiSHcTVDEZCMQ8f39PQprF308Pj4ikZDV3+wOfD6WD4a8gZM9nhnFGLjb/2gsiTHcnM3ziAZS2OgaZDuhYxMUsRnXDhfo6qYyV7kPrQ3F6j8eoxPmt0Dx+KH5/5cDcTd+rxmGAuf2+GIKY5Qibu7Qc/P7g8fzOrYr2aXQqHPZAAAxszuwSKLpKf3jxGs/Jxx1LI1HvLf24UriXlxcmMvLS3NycmJubm7mpkBGIWL7wR+Z32Kt79Bu6MI9x1F6VzPFNbzIUO/t7b0MMbkZWMuiPD4+xt8/hWixL1HX5/T161dzeHho/vnnH/P9+/f6e/Y8E8TVY5sMkj1w3arBjsFuTJzYRpR8gmfIcXZ2tvEahD6swOrrbsVW/124/tZ1B50TiTvrvpV13creDN68fzQDQ/ICEzmurq4qe8evG8zp6enKDC1+ZjabRWvQIQ68dwgm9t8BcUFkuOaS2fKuz9iOkUPEZ6YwxrADxK7rLv/111/1N2wDqrtxbVLsakqTwntEN9eKt554gsk1UuELus3WaevJLN++fVt5XrQB0+Q/SEbYO++Vjbk679ipdTU1Drgw3nOM18Z1tsIVD1vg6nB0HMvd51VHiePNY3Di6d3d3atvdLlyqSAhFMOJcX1xnR8fH+vr3jU7yxfn6sg+w9WXp3augm6cGUhqYZaSMd1xFI6joyMVF0rlQEyIHkfI17RCq2eK7e/vi50Tru6SYn1dvcS4uHQnnnbd9Z0rS7lDyoTcdQGvA5fE8BGuL9xSAufqmJyzzedGJ84MjA/7umsMlwp9wLWQFdZ+Hbgu3Fc6Ey7l6qXFxaVP9piPwWF90c5O49yYlAH3tULrVbFjE3B1ZJ4B3Ncn9t0E3NjetOf26Q9TAMV3p5eTWusI2dWMiZaIMdsK3VzMeoPQpASMmwHO2yd51UXzt81NIRTrxEhqYX6txIdeClp7Aq+a4tgXdwN186UBqp4gBoZ4JXtUpcXFJXenJ30++LE4setSS0yywHmwwACPyy7Z7E/08giHbn+9/Nz9rpsrDeDC0gJuvUYx86hLFvGsueOSFlJritF9hoAhRHR1nZjbonRletrP3WfixNq1mAE1tzTyGiXFxSWLeNrnw0dDGoMTS4Gubmt1Ub30D5M5fFYY+YLYFd3pHz/kdYZzl5TcKhLbVbr3mYbXPqrnygBFH1ILPXBttUsaab4Gzo02YgqgyOw0Fo5bN5j0TWrBQbAAvWSkhplckkxzyMp9fhqfSTsuNplT6hDTdJs4agy1pyTHihFXYkxYE7yG1tz2UrLUpYp4q6QWGjhqUBE/cI1b9atUcHGx1rkNRZwsWztxLjWotkVyKA0TabRXgNGJuylWxNtUdGRhgH7gRunGerVgXNxNcSJ2Sa1tnbh0EUuuKXbVJrW71HTjzZToxNNtJweMQcTS4FovbwonDePizZQo4hlFvB7p6aWaAnPQiTdTpBNvO92SMXF/QmSoGRdvpkgRb7tNSawaVCGRFrGbE824OB5FiXhIUotsDxZAMC6OR2lOPB0i4DEsR9R4jxgvphPHozQRz4a68Fiy09JxsXZyi3Hxeopz4iFriLUqX6SG9O6I7rppLx6hG6+mOBHnuPduCSAu1nZjxsWrKUbEEkmtMcTEQON9cuZWPEpy4imz0n5ojIeHmPTBuHg1JYl4JiFifJgsDNCfEIshAN34LUU58ZCkFhkO51HHoSgRSyS1xlAYQCv2DzHURCd+SxEilpypNYbCAFrAyTiPOjylOLFYUmsMGWr0WDTeY4gMNaAbv6YUEc+YmY6PKxTP8eKwFOPEUkktrikeBj4H7NqgCZ34NaWIeCI1U2ss1T203mOI4nmMi1+TvYibpJZYTDwWJ9Z6jyGmXwK68W9KcGLRmVpjKAygiSsSoD1hhnHxb0oQ8S6TWv3QzsBzvDgsJYh4LjlTayyLIDTBTZVxcThKEPFEcvnhWBJbmnPE//33X8bFAclaxNJJLcDa08MJsWMiYFz8TO5OzOWHWxIiLtZeDEEnfiZ3EYsntRgTy8C6W+HIXcSiSa0xoX2zClEBE9CN8xfxRKOmVohxztJxiyEYF+uTrYg1klogRHWKFNB2Yu6YGI6cnVglqeUadumFAUKAz0d7MQTj4rxFrDJTyzW60gsDaK0pboPu6P7+vtFm7G6cs4hVklquYTNDPZwQOyaCscfFOYtYJamFRue6aCWDmFX7RsUdE8OQpYi1kloADQ4f3Bi2OA1BiEkfY4+Lc3ViFQE74Wqut02FUJNaQhTPA2N241xFvKvlwjgv50/LEWLmFhhzXJyriFWSWhAuBDyGwgChnJg7JuqTq4hVklqI3ZzD04nl4DxqXbITsXZSC+cdQ0wMNNcUtwk11DRWN87RidWWH0K4cHjGxLKE2DFR+3Vy3r84OawTH56enlZ4Kn0APNpYsbq/v1d5jZSOm5ubyjpkkNd6fHys7I1R9TU0Pzec23JvEiRHJ1ZJarmu9JgIue9UiMUQY42LcxSxSlILmVrXCMZSGCDk+4SI9/b2jDZjjIuzErFmUgsLH1jqRw8Uz+M8ah1yc2K1pNZydzpU5jYmIeZPO7hjoh65iVitUDwac6j5xKkQ8v2G2jFxjHFxbiJWSWoBiBh1oRzcp1ieEDsmutcZkxvnJmK15Ydu2RzRI8SOiWBscXE2ItZMamFix/Ia4jE4cehJLaEWQ9CJ00UtqTXWzHRoEePGGKKS6Nji4pxErJrUWnbikJnbWMTobdCN5clJxGpJrVWztRgf6xBix0Qwprg4JxGrJLUARNzOTIMxOHGMhR6hFkPQiRMDSS2jXJJn2XlRGKB0YogYn2GIHRPHFBfn4sTTkF1pwH2K9cD11i6eB8bixrmIeFczM70q/uWaYj0uLy8ZFwuSi4jnmpnpVS4/FhHjfYbesoY7JsqSi4gny4knKcbenQ65ptjhMtSMi2VIXsSaSS2AhrQqiTWmmDh0Fh7XlnW35MjBidWSWvXJR+7EsQixYyIYQ1ycg4h3Q60hXmYMQo71HjleLEcOIp6HnG7ZJka8GJpYIg41/XIMcXEOIlZLarEkT7yZaaF2TASlu3HSItZOanV1p8ewHDHmzLQQOyaC0uPi1J1YNakFgXbNx2ZMrAd3TJQhdRHvanZ3uzYUH8N2LjFFzLhYhtRFPNfuSo99yWHMkCHUjomgZDdOXcRqSS23jekmxhATx4b7Fw8nWRFrJ7WYmX4m9lg4Z24NJ2UnVp+ptSkeBqFLusYgtohDVcAsOS5OWcSqSS2Ik078TOzkFj6LEK9fqhunLOK5dma6K97mSqYwhNripdS4OGURqya1QFdii2uKw8BKH8NIUsSxZ2o5xpKdju3E2DGRcfH2pOrEqkktZqZfE7uyZ6juNCjRjVMVsXpSqyszDcbUnY79+vg8GBdvxx8mTabaSS0Ua+vCifjm5sZ1l+pkGB5Lmu2Vws3KLYbQ7iHhdY6OjowGsZw4WRFrJbUAnNh39c7Ozk4tesRReNzb26sbvHMNNDocTuAQRG5d9RREjGsXIrnVjoulNyNox8W23ejsdJAL9iJUeNA4bGOtJM5/cHBQXVxcVLbhVYeHh9Xp6Wl1dXVVWdeuz49H/L+961f7+/uV7cLVr631voYc7u+P9fq4LrhGj4+PQV7v7Oys+vz5s9q5LZ9NQJJzYnsB5jFqam0DHAxxUBMLvXkd5962wSTt3uiVhHJidx2QXMSjOyy4ABN7zd5pbdfjcHHxjx8/jDQ4t73Bz+1T+ZOvIcXutGpSa9VexBo4oWL4ZPn1XQNGt946UP3oZpC5eNvF3m47UE20utPLgnVlavGeXJbYvu8D+6P/2u7nk72Bn9nvHWiIq01pcXGKIp5qikxqeAnjqtsMy6xzbzRunA/ujaQbDnzt5ng7cTv3lkysSYjY/a34+yFOPMc53c0Mjfv4+PhVHNrcyB4g4OZbt/ietohLi4uTFLF2Zvr8/NwMRXpc1XWpnTi/fPnyIlL8zbhpOPf++vVr/eh+xz22M+d9X7uPiPHaECpuiO45gFDx+rgB4W/sEkjz/tovfI2eybdv34w2riegccPAuUN2qZMU8aoYUwqfkjw+OKfRwM2gciJ2onTXBa+LhoKuOoTkuq2IvZ0jtsXd5d6bRNwWrItf3XnxN+DwEey692laIrbOdWsd7Mn+Le+0Q4iS4uKkRIyklnaCRyqx5RpzTFzXHCzH3svuDYdrJ9ba7u1E7EQKwTbx6stuDfhZOKz7eUVubcZ/vvx+pCkpLk7NidVrakkJ+NksnqIMrvpMk1x2b4dLrDnHdu6N79vhkZd9khC/QkgRblSX9vXVRVxSXJyaiFXjYecsEuexPNgjzITfJYa8h3ZibV1X0o53B8uKm9cxMbgLPY8697g4tbnTqiKWykw3M4suS13hFGoG1xoR32rmG9qUMo86ORFrJrUku9OWhVGia32vtshiTsPEcJN97VvW3fInGRGHSGpJTfRoGpja5O6u9b0hZ1hFYhFix8RS1hen5MS72jGYT0meLpok0FMzQeEhRM3kUlnTnQbXIYoEgBLcOCUR39mL+YCkikas6VuSp4vmb9PtMoyEZiXZKhEvQom4hLg4GRFbZ1vY46O9oF/u7+8fMNwhKWapeLhJakUVsXbMGrssURMXP3BnCD+Sq+xhP8Bz+/DJpuePrZjr8UqJBiWVmV5Kaj1pFJjrEmkK638DsMAEFW1KiIuTLM9jhYxJ8Sf26cejo6NzdLExKWEIviV5fM5jcQP4TxoF5kYi0k0xMbhm3S0/Uq2xVdOI+YsVzsfz8/MFnHlbMUt0p5upiUhqFd2dDkWHiBkXe5K0iB2NmD9ZMX+xYt4q+eWzbYvPOczrePghRuyoLeIUtq/BZ27/hifuDNFNFiJ2IF7eJvnlGsLQObLN2CUz0+FYoKaZNrnHxVmJ2NE3+SWVmW7u1hSxEI14Jht+ZFFCXNy0vblRIksRgz7JL5+9iH1oLXxwqHT3uoZ4Yg8BBeQu57gY50O7tFn2hVGc4ZetiB0+ya9thpcgEuv09ZpTdNtxXriCfa325O6nErPIsXeEaIE51NnFxWg3aC9WwEjOzZHP0UyGplp3ujcQs334ZGOPAyvmI3shJyhx43YWWFeSx1WuQDzknrccd9E81s/HUks4drEDR1M8D0Kea1ZABRLri91N37afhf3yeOmGr0YxInY08fI5xGzvhkdWvBMXV+EiC4s1mhO7DHUqgtsGj5gY1JU+tEUMtllfjM8APb+m7tnCBBSvozgROyBmK+SFFS761seXl5cPRt5Zf8UUcbsOV8FgMcTXk5MTo02fulv43CHcw8NDPF+YCOJ1FCti0HSxT5ojG2LHpIklzoJmqLvqbqUkXkf2ia0SGcF64Rdww2r2o16JWwwRQsibxovxeWAoEwkrjIbYr13CKqqAAUU8jIdYjtVV/SMXmnCgawL6ZYjN1sBylnqFeD9iNCQF8TqK7k6XTFf1j8IIVjzPxcWottnqNp/b/zppwrPkoIiHUew4cWLvq16WKLEKrQu8b7zW3t4elpn+Y7/1vbXNTJJQxMOIPsSU27m3AQ5o4+ZjdGsDAdH+SF28Doo4QXxEVMpyxCYTPjG/12ivpJliS1bAxFaCjKUoAJGBTjyApptnSqSEGWFjgU6cKdoTMkJlvzuqexAPKGISFYp4OBTxcMRLqzImJn2giBMkhex0KTPCxgBFnCna86sZE+cDRTycJzrW9lDEw6GIh/M0ojnMJEEo4kwJMcTE5FoeUMTDEV+OmEKhulAibupZTQzZGoo4QThLivSBIs4UdneJgyIeTpTliCFEzJtEHlDEwymyMAASZyHel2fZWrIBijhR2F0mvlDEw1Fx4q4ZUyPaj4l0QBEP51epjhnifXHG1nAoYrISjN9SxHlAEWcM42YCKOLhRC0gz3nbhCJOFK7nJb5QxMOJkp3WJlT2m+PEw6GIhxNtsgeHmQigiAnJHIqYRKdre1OyGYp4ICggr9Gl9Rk+0uxOh+yqe25vStZAEScKx4CJLxQxIZlDEcsgXkB+TDTdaQ6KbwlFnDGMiQmgiAnJHIpYBvEC8kxsEV8oYhnEC8insB9TKDj1chgUccZo78cEcTFhlz4UsQwPnMNMYkERE5I5FHGixJ52GRLGxMOgiGUQX46oHe/6wMIEeUARy1BkAXmW/8kDijhjWBSAAIpYhiKdOBTc3nQYFLEMRRaQT2GfZNINRZwoKczG4j7JeUARJ8qYhpjIMChiGThjawAcJx4GRUzWwpVUeUARyxAtOw2haS1SoIjzgCKWQVzEvgIqIfnEnRGHQREnyphckCIeBkVM1sLudB5QxAJoFZD3QXOYKYVFGKSbPwwR4+rqytze3prr6+taXHhOumF3ehgUsRDWjXeqqprN5/Pp169f5/ZbE9s4pxDyYrGohY3nnAX1Fop4GBSxIFbH1/YBx3d8jU3CrKh37TG3X+KAqN/BpSHsu7u7+nEVm+JRnA7HbDarH9Gdxk0iR/D37+3t4SnvbiQPrLCn9tizx6k9rir8c3VVnZ6eVvv7+9V0Oq3wY88/WtWPVszVwcFBdXZ2Vj0+PuLb983vz+xx8fnz55ffkTyswOq/Tfq8eD+Hh4f1uS039jjirogkaxoxHkKQaNQQatPA3eNj83+Hy43dfn2Wi4hxPtys/vvvP/d+ZoaQEoFQW8Kedfxs0iJect1Huq48jIkTxMbWiA9dfN2F2vDWkHFiF+vaMADnWNhvHTc5A0JIGzjb/f19dXFxUTteO6YeetibQ4VzG7ouIbpYoUyaZNlZO6Y+Ojqqu8QQl1EUsYt1m6TbFWNdQgbSxNRrM+AQpxkoYrouIYFpJcqgusebm5t6yApJsXVd8FUixs8eHx/TdQmJTTNefdAM9dxDlC6uRvfYNKIFcF04OF2XkIRpxdWny2PVdF1CMmRprJquSwghhBBCCCGEEEIIIYQQQgghhBBCCCGEmP8DJNkUOzUDMysAAAAASUVORK5CYII=;flipH=1;" vertex="1" parent="1">
          <mxGeometry x="99.99999999999994" y="775" width="73.43" height="110" as="geometry" />
        </mxCell>
        <mxCell id="i6CGsaQ3u0MQ8RbkaiSG-33" value="" style="shape=umlActor;verticalLabelPosition=bottom;verticalAlign=top;html=1;outlineConnect=0;" vertex="1" parent="1">
          <mxGeometry x="235" y="770" width="30" height="60" as="geometry" />
        </mxCell>
        <mxCell id="i6CGsaQ3u0MQ8RbkaiSG-34" value="" style="shape=umlActor;verticalLabelPosition=bottom;verticalAlign=top;html=1;outlineConnect=0;" vertex="1" parent="1">
          <mxGeometry x="525" y="770" width="30" height="60" as="geometry" />
        </mxCell>
        <mxCell id="i6CGsaQ3u0MQ8RbkaiSG-35" value="I&#39;m here" style="text;html=1;strokeColor=none;fillColor=none;align=center;verticalAlign=middle;whiteSpace=wrap;rounded=0;" vertex="1" parent="1">
          <mxGeometry x="220" y="740" width="60" height="30" as="geometry" />
        </mxCell>
        <mxCell id="i6CGsaQ3u0MQ8RbkaiSG-36" value="I want to get here" style="text;html=1;strokeColor=none;fillColor=none;align=center;verticalAlign=middle;whiteSpace=wrap;rounded=0;" vertex="1" parent="1">
          <mxGeometry x="510" y="730" width="60" height="30" as="geometry" />
        </mxCell>
        <mxCell id="i6CGsaQ3u0MQ8RbkaiSG-37" value="" style="shape=crossbar;whiteSpace=wrap;html=1;rounded=1;" vertex="1" parent="1">
          <mxGeometry x="245" y="840" width="300" height="20" as="geometry" />
        </mxCell>
        <mxCell id="i6CGsaQ3u0MQ8RbkaiSG-38" value="error" style="text;html=1;strokeColor=none;fillColor=none;align=center;verticalAlign=middle;whiteSpace=wrap;rounded=0;" vertex="1" parent="1">
          <mxGeometry x="365" y="830" width="60" height="20" as="geometry" />
        </mxCell>
        <mxCell id="i6CGsaQ3u0MQ8RbkaiSG-39" value="\(e(t) = d(t) - y(t)\)" style="text;html=1;strokeColor=none;fillColor=none;align=center;verticalAlign=middle;whiteSpace=wrap;rounded=0;" vertex="1" parent="1">
          <mxGeometry x="322.5" y="810" width="145" height="30" as="geometry" />
        </mxCell>
        <mxCell id="i6CGsaQ3u0MQ8RbkaiSG-40" value="\(d(t)\)" style="text;html=1;strokeColor=none;fillColor=none;align=center;verticalAlign=middle;whiteSpace=wrap;rounded=0;" vertex="1" parent="1">
          <mxGeometry x="510" y="855" width="60" height="30" as="geometry" />
        </mxCell>
        <mxCell id="i6CGsaQ3u0MQ8RbkaiSG-41" value="\(y(t)\)" style="text;html=1;strokeColor=none;fillColor=none;align=center;verticalAlign=middle;whiteSpace=wrap;rounded=0;" vertex="1" parent="1">
          <mxGeometry x="220" y="855" width="60" height="30" as="geometry" />
        </mxCell>
        <mxCell id="i6CGsaQ3u0MQ8RbkaiSG-42" value="How do I interpret the error in a way that I can find an optimal direction to get closer to the target?" style="shape=callout;whiteSpace=wrap;html=1;perimeter=calloutPerimeter;" vertex="1" parent="1">
          <mxGeometry x="50" y="680" width="220" height="90" as="geometry" />
        </mxCell>
        <mxCell id="i6CGsaQ3u0MQ8RbkaiSG-44" value="" style="shape=image;verticalLabelPosition=bottom;labelBackgroundColor=default;verticalAlign=top;aspect=fixed;imageAspect=0;image=data:image/png,iVBORw0KGgoAAAANSUhEUgAAAPEAAAFpCAYAAABNic6TAAAACXBIWXMAAAsTAAALEwEAmpwYAAAAAXNSR0IArs4c6QAAAARnQU1BAACxjwv8YQUAAB0BSURBVHgB7Z3vWdtIF8WH99nvm1QQpwK8FdipALaCkApIKgAqYFMBpALYCjAVABVAGlhIBXrnCA0RxrZG1r3zT+f3PIoNARnLc3Tm3pm5YwwhhBBCCCGEEEIIIYQQQgghvdgxZCuqqprah5k93hlCBNnZ2Tnp9fOGdGIFC6HOzbNoId7pw8PDu8ViYeyjIaQv0+nUzOdz8+7dswc8PT2Z29vb+ntWxL10+Ychb2i5LB7n9gJPcIEhWhx3d3f1RSfEBwgV4pzNZrV4caD9XF5e1sK9vr6uH8H9/T3a3wer45++5x+9iFe5rL2gtcs64f786X09CalF6gTr3Na1pePjY3ETGJWIG8FCqLum5bLOYXGh6bKkD+tc1rUpiLaPCTRt77096MTAinZinl3WiZYuSwah7bLN7/7Z53eKEfGSy87Ns8u+o8uSbZF2WR+a9jmxx7Xv72Qr4iWXhWDhssYddFnSl1Uu6wSLJFQIE9jm/FmIeJXLuiEeJ1q6LOnDKpfFcKGmy/rQtOFecw+SFPEml8UFRkqegiV9SMFlfchSxC2XnZtmmKftsu0xNEJ8SNVle5C2iNdNpKDLkm2AYCHS3d3d5F3Wh+bmko6IN01XpMuSbZhMJrVQnWgzdFlxREXM6YpEktJc1odmLv6kx69sL2JOVyTS0GW3w0vEnK5IpBmjy/og5sScrkikabssHiHcdqhFl92eN+sWrYCP7MOxIUSQ9nRF9tzWg97I4+Pj087OznuzLVbEh6enpxWe8uAhcRweHlZsU/4HMD3434rv/XLVBgiR4NevX4Ztyh/0UJo8lBf/M4SQpOi7HHGViB+QhCBECjRKOrEedGKiDkXcj77DTHRiog5F3I++K5noxEQdirgfEiJ+4gUnJB/ezNiyg8xPPYepCNkInbgfEjExoBsTMShiXdaK+M8/e1XNJIQI0cwhn/j+PBNbJAjoIn748MEQedaJmMNMhESCQ0wkSdAw37/ffmHOmJASMZ2YiIKGyTyLH3RikizMUPshJWIOMRFRkNhim9KBIiYkMTjZgyQJJ3zosU7ErO5BRKGI+wE3rqrKa2CdiS1CModDTCQImErINuVPk6H2GlinExOSIH3qbNGJSTAYE/vTJ0NNJyZB4DixHhxiIiRB+szaWrkXE6t7EGngxAzR/Okj4k3daboxIZEQEzFXnRApONmjH9j6xgiImBAxKGI9NomYw0yERIJDTCRJWGdLBzoxIQlCJyZkRHCIiQSDY8X+NENME5+fpYgJSZBGxF5QxCQYdOJ+QMhVVXWKcJOIWd2DkIj4Lkf8w2TE0dGRkeTk5MSkiPS89Z2dHUOyBYUBfm76gU0iTm6I6fj42EiSqohLhd3pfjTXq9OJOcRESKL4LoLgZA8SDNbZ6oeEiAkhGcAhJkISxXfq5VoRo7oHRUwkYWJLh67uNIVMSCSQQzBDnLiB1T2IGHRiHZjYIiRRpLLTHGYiJBIcYiLJwe50P3yXI9KJCUkU3+WIdGISFFa99EeqO80hJiIKGiZHPPygiAkphK7CABQxCQqTW/1opl5u7Lp0iZjVPQhJHCa2SFAQ59GJ/fFZBMEhJhKUPlUciR9Z1diSLs+TKqyJRRwtJ75e9zNdIk7KiVkTK3+Y2JKHMTEhCeMzVswhJhIUztjqh4+IN3anUd1DugYyGTe/fv2iiHsg4cT1eXjRCYkDbnpGQsSc60qk4DixPExskaBwnLgfEpM96vPwzkmkYGKrH1IxMSFiUMT9kBIxnZiQhKETk6BwxlY/pGJiDjERkjAUMQkO4+J+wI2rqvqw7v8pYhIc1tmSxUfErO5BSESaDPX7df/PxBYJDhrl+/fvDfGjEfHarguHmEhw2J3uR9dYMZ2YBIeJrX5IiJhOTEShiGWhExOSOF0TPjjERIJDJ5als9olq3sQaSjifvz8+RMPk3X/79udphsTMShiWbxFzCEBIgXrbPWDQ0yEZI6UiDnMRMRgd7ofEtlpQkShiGWhE5PgUMT9YExMkoMi7oeUiDnEREhEIOSqqlaKkCImwaET92fTckSKmASHIpbFV8Ss7kFIRDYNMzGxRaKARvnhwwdDhsMhJkIygE5MkoN1tuSgE5MosM5WP5rs9GTV/9GJSTSYLPVn05awHGIiUUCMxzblz6ZZW52VPQCrexASF6zBNmtE3Kc7TTcmYnDCx1YMFzETEUQKirgfzRDTYBETQiKxKSbuI2IOMxExUMGR7ckfKRETQhKETkyiwZjYD1yn6XSKp5NV/+81xESINBwnXo0T7O7ubv04n88RdqAvfdscb+gjYg4xESIMhIpjNpu55xDsgz0W5lm0i52dnZ+bzkERkyjAiccWnuH9wlmdy+KwmnowvwV7bQV72/e8FDEhCrS7xRAuDvs9uOzC/BbtHWZDmoH0ETGrexAxSprsgfcBl3Vd4hVx7AKPXd3ibWFii0QhZxG3u8WNYPFeXsRqPOJYSfqImENMZHTgRgOhthJPy3GsWLd4W+jEJBquzlaz/250NgzvLMxvwV7HFOwq6MRktKwZ3rltHUG7xdtCJyajQGt4JwU4xESi4caKpbvTa4Z3HkwrU2wix7GSeIvYVffAgcxiu+bP8tegWf+49uvlD275/31eg5DYwzsp0Ks7bS/EDh6xsZOlXSEAtUeXKwZMBn79zrxeevXqa95I8sc58fX1tffvLA/vNAsDog3vpMBWMXHTDWm35lUXzf+T2QLhG8nENqj5sohxl2+HEMtf80aiSw7DOymQbWJL8kZibwj7t7e387///tv0AY2sXbIIxdCXSxgtZ/SXv0YDbfP58+c3rzGGG8lyHNsI1iwWi/rvsd/DC34cu2BXsWMIRDy3jeXq06dPJjf63EjOz8/NwcFB541l+WutG0mTcHo57I305YB42zcX5GJcOEdew4ti6gaC7vT9x48fTck0QjDSDOmRQOyIiSHcTVDEZCMQ8f39PQprF308Pj4ikZDV3+wOfD6WD4a8gZM9nhnFGLjb/2gsiTHcnM3ziAZS2OgaZDuhYxMUsRnXDhfo6qYyV7kPrQ3F6j8eoxPmt0Dx+KH5/5cDcTd+rxmGAuf2+GIKY5Qibu7Qc/P7g8fzOrYr2aXQqHPZAAAxszuwSKLpKf3jxGs/Jxx1LI1HvLf24UriXlxcmMvLS3NycmJubm7mpkBGIWL7wR+Z32Kt79Bu6MI9x1F6VzPFNbzIUO/t7b0MMbkZWMuiPD4+xt8/hWixL1HX5/T161dzeHho/vnnH/P9+/f6e/Y8E8TVY5sMkj1w3arBjsFuTJzYRpR8gmfIcXZ2tvEahD6swOrrbsVW/124/tZ1B50TiTvrvpV13creDN68fzQDQ/ICEzmurq4qe8evG8zp6enKDC1+ZjabRWvQIQ68dwgm9t8BcUFkuOaS2fKuz9iOkUPEZ6YwxrADxK7rLv/111/1N2wDqrtxbVLsakqTwntEN9eKt554gsk1UuELus3WaevJLN++fVt5XrQB0+Q/SEbYO++Vjbk679ipdTU1Drgw3nOM18Z1tsIVD1vg6nB0HMvd51VHiePNY3Di6d3d3atvdLlyqSAhFMOJcX1xnR8fH+vr3jU7yxfn6sg+w9WXp3augm6cGUhqYZaSMd1xFI6joyMVF0rlQEyIHkfI17RCq2eK7e/vi50Tru6SYn1dvcS4uHQnnnbd9Z0rS7lDyoTcdQGvA5fE8BGuL9xSAufqmJyzzedGJ84MjA/7umsMlwp9wLWQFdZ+Hbgu3Fc6Ey7l6qXFxaVP9piPwWF90c5O49yYlAH3tULrVbFjE3B1ZJ4B3Ncn9t0E3NjetOf26Q9TAMV3p5eTWusI2dWMiZaIMdsK3VzMeoPQpASMmwHO2yd51UXzt81NIRTrxEhqYX6txIdeClp7Aq+a4tgXdwN186UBqp4gBoZ4JXtUpcXFJXenJ30++LE4setSS0yywHmwwACPyy7Z7E/08giHbn+9/Nz9rpsrDeDC0gJuvUYx86hLFvGsueOSFlJritF9hoAhRHR1nZjbonRletrP3WfixNq1mAE1tzTyGiXFxSWLeNrnw0dDGoMTS4Gubmt1Ub30D5M5fFYY+YLYFd3pHz/kdYZzl5TcKhLbVbr3mYbXPqrnygBFH1ILPXBttUsaab4Gzo02YgqgyOw0Fo5bN5j0TWrBQbAAvWSkhplckkxzyMp9fhqfSTsuNplT6hDTdJs4agy1pyTHihFXYkxYE7yG1tz2UrLUpYp4q6QWGjhqUBE/cI1b9atUcHGx1rkNRZwsWztxLjWotkVyKA0TabRXgNGJuylWxNtUdGRhgH7gRunGerVgXNxNcSJ2Sa1tnbh0EUuuKXbVJrW71HTjzZToxNNtJweMQcTS4FovbwonDePizZQo4hlFvB7p6aWaAnPQiTdTpBNvO92SMXF/QmSoGRdvpkgRb7tNSawaVCGRFrGbE824OB5FiXhIUotsDxZAMC6OR2lOPB0i4DEsR9R4jxgvphPHozQRz4a68Fiy09JxsXZyi3Hxeopz4iFriLUqX6SG9O6I7rppLx6hG6+mOBHnuPduCSAu1nZjxsWrKUbEEkmtMcTEQON9cuZWPEpy4imz0n5ojIeHmPTBuHg1JYl4JiFifJgsDNCfEIshAN34LUU58ZCkFhkO51HHoSgRSyS1xlAYQCv2DzHURCd+SxEilpypNYbCAFrAyTiPOjylOLFYUmsMGWr0WDTeY4gMNaAbv6YUEc+YmY6PKxTP8eKwFOPEUkktrikeBj4H7NqgCZ34NaWIeCI1U2ss1T203mOI4nmMi1+TvYibpJZYTDwWJ9Z6jyGmXwK68W9KcGLRmVpjKAygiSsSoD1hhnHxb0oQ8S6TWv3QzsBzvDgsJYh4LjlTayyLIDTBTZVxcThKEPFEcvnhWBJbmnPE//33X8bFAclaxNJJLcDa08MJsWMiYFz8TO5OzOWHWxIiLtZeDEEnfiZ3EYsntRgTy8C6W+HIXcSiSa0xoX2zClEBE9CN8xfxRKOmVohxztJxiyEYF+uTrYg1klogRHWKFNB2Yu6YGI6cnVglqeUadumFAUKAz0d7MQTj4rxFrDJTyzW60gsDaK0pboPu6P7+vtFm7G6cs4hVklquYTNDPZwQOyaCscfFOYtYJamFRue6aCWDmFX7RsUdE8OQpYi1kloADQ4f3Bi2OA1BiEkfY4+Lc3ViFQE74Wqut02FUJNaQhTPA2N241xFvKvlwjgv50/LEWLmFhhzXJyriFWSWhAuBDyGwgChnJg7JuqTq4hVklqI3ZzD04nl4DxqXbITsXZSC+cdQ0wMNNcUtwk11DRWN87RidWWH0K4cHjGxLKE2DFR+3Vy3r84OawTH56enlZ4Kn0APNpYsbq/v1d5jZSOm5ubyjpkkNd6fHys7I1R9TU0Pzec23JvEiRHJ1ZJarmu9JgIue9UiMUQY42LcxSxSlILmVrXCMZSGCDk+4SI9/b2jDZjjIuzErFmUgsLH1jqRw8Uz+M8ah1yc2K1pNZydzpU5jYmIeZPO7hjoh65iVitUDwac6j5xKkQ8v2G2jFxjHFxbiJWSWoBiBh1oRzcp1ieEDsmutcZkxvnJmK15Ydu2RzRI8SOiWBscXE2ItZMamFix/Ia4jE4cehJLaEWQ9CJ00UtqTXWzHRoEePGGKKS6Nji4pxErJrUWnbikJnbWMTobdCN5clJxGpJrVWztRgf6xBix0Qwprg4JxGrJLUARNzOTIMxOHGMhR6hFkPQiRMDSS2jXJJn2XlRGKB0YogYn2GIHRPHFBfn4sTTkF1pwH2K9cD11i6eB8bixrmIeFczM70q/uWaYj0uLy8ZFwuSi4jnmpnpVS4/FhHjfYbesoY7JsqSi4gny4knKcbenQ65ptjhMtSMi2VIXsSaSS2AhrQqiTWmmDh0Fh7XlnW35MjBidWSWvXJR+7EsQixYyIYQ1ycg4h3Q60hXmYMQo71HjleLEcOIp6HnG7ZJka8GJpYIg41/XIMcXEOIlZLarEkT7yZaaF2TASlu3HSItZOanV1p8ewHDHmzLQQOyaC0uPi1J1YNakFgXbNx2ZMrAd3TJQhdRHvanZ3uzYUH8N2LjFFzLhYhtRFPNfuSo99yWHMkCHUjomgZDdOXcRqSS23jekmxhATx4b7Fw8nWRFrJ7WYmX4m9lg4Z24NJ2UnVp+ptSkeBqFLusYgtohDVcAsOS5OWcSqSS2Ik078TOzkFj6LEK9fqhunLOK5dma6K97mSqYwhNripdS4OGURqya1QFdii2uKw8BKH8NIUsSxZ2o5xpKdju3E2DGRcfH2pOrEqkktZqZfE7uyZ6juNCjRjVMVsXpSqyszDcbUnY79+vg8GBdvxx8mTabaSS0Ua+vCifjm5sZ1l+pkGB5Lmu2Vws3KLYbQ7iHhdY6OjowGsZw4WRFrJbUAnNh39c7Ozk4tesRReNzb26sbvHMNNDocTuAQRG5d9RREjGsXIrnVjoulNyNox8W23ejsdJAL9iJUeNA4bGOtJM5/cHBQXVxcVLbhVYeHh9Xp6Wl1dXVVWdeuz49H/L+961f7+/uV7cLVr631voYc7u+P9fq4LrhGj4+PQV7v7Oys+vz5s9q5LZ9NQJJzYnsB5jFqam0DHAxxUBMLvXkd5962wSTt3uiVhHJidx2QXMSjOyy4ABN7zd5pbdfjcHHxjx8/jDQ4t73Bz+1T+ZOvIcXutGpSa9VexBo4oWL4ZPn1XQNGt946UP3oZpC5eNvF3m47UE20utPLgnVlavGeXJbYvu8D+6P/2u7nk72Bn9nvHWiIq01pcXGKIp5qikxqeAnjqtsMy6xzbzRunA/ujaQbDnzt5ng7cTv3lkysSYjY/a34+yFOPMc53c0Mjfv4+PhVHNrcyB4g4OZbt/ietohLi4uTFLF2Zvr8/NwMRXpc1XWpnTi/fPnyIlL8zbhpOPf++vVr/eh+xz22M+d9X7uPiPHaECpuiO45gFDx+rgB4W/sEkjz/tovfI2eybdv34w2riegccPAuUN2qZMU8aoYUwqfkjw+OKfRwM2gciJ2onTXBa+LhoKuOoTkuq2IvZ0jtsXd5d6bRNwWrItf3XnxN+DwEey692laIrbOdWsd7Mn+Le+0Q4iS4uKkRIyklnaCRyqx5RpzTFzXHCzH3svuDYdrJ9ba7u1E7EQKwTbx6stuDfhZOKz7eUVubcZ/vvx+pCkpLk7NidVrakkJ+NksnqIMrvpMk1x2b4dLrDnHdu6N79vhkZd9khC/QkgRblSX9vXVRVxSXJyaiFXjYecsEuexPNgjzITfJYa8h3ZibV1X0o53B8uKm9cxMbgLPY8697g4tbnTqiKWykw3M4suS13hFGoG1xoR32rmG9qUMo86ORFrJrUku9OWhVGia32vtshiTsPEcJN97VvW3fInGRGHSGpJTfRoGpja5O6u9b0hZ1hFYhFix8RS1hen5MS72jGYT0meLpok0FMzQeEhRM3kUlnTnQbXIYoEgBLcOCUR39mL+YCkikas6VuSp4vmb9PtMoyEZiXZKhEvQom4hLg4GRFbZ1vY46O9oF/u7+8fMNwhKWapeLhJakUVsXbMGrssURMXP3BnCD+Sq+xhP8Bz+/DJpuePrZjr8UqJBiWVmV5Kaj1pFJjrEmkK638DsMAEFW1KiIuTLM9jhYxJ8Sf26cejo6NzdLExKWEIviV5fM5jcQP4TxoF5kYi0k0xMbhm3S0/Uq2xVdOI+YsVzsfz8/MFnHlbMUt0p5upiUhqFd2dDkWHiBkXe5K0iB2NmD9ZMX+xYt4q+eWzbYvPOczrePghRuyoLeIUtq/BZ27/hifuDNFNFiJ2IF7eJvnlGsLQObLN2CUz0+FYoKaZNrnHxVmJ2NE3+SWVmW7u1hSxEI14Jht+ZFFCXNy0vblRIksRgz7JL5+9iH1oLXxwqHT3uoZ4Yg8BBeQu57gY50O7tFn2hVGc4ZetiB0+ya9thpcgEuv09ZpTdNtxXriCfa325O6nErPIsXeEaIE51NnFxWg3aC9WwEjOzZHP0UyGplp3ujcQs334ZGOPAyvmI3shJyhx43YWWFeSx1WuQDzknrccd9E81s/HUks4drEDR1M8D0Kea1ZABRLri91N37afhf3yeOmGr0YxInY08fI5xGzvhkdWvBMXV+EiC4s1mhO7DHUqgtsGj5gY1JU+tEUMtllfjM8APb+m7tnCBBSvozgROyBmK+SFFS761seXl5cPRt5Zf8UUcbsOV8FgMcTXk5MTo02fulv43CHcw8NDPF+YCOJ1FCti0HSxT5ojG2LHpIklzoJmqLvqbqUkXkf2ia0SGcF64Rdww2r2o16JWwwRQsibxovxeWAoEwkrjIbYr13CKqqAAUU8jIdYjtVV/SMXmnCgawL6ZYjN1sBylnqFeD9iNCQF8TqK7k6XTFf1j8IIVjzPxcWottnqNp/b/zppwrPkoIiHUew4cWLvq16WKLEKrQu8b7zW3t4elpn+Y7/1vbXNTJJQxMOIPsSU27m3AQ5o4+ZjdGsDAdH+SF28Doo4QXxEVMpyxCYTPjG/12ivpJliS1bAxFaCjKUoAJGBTjyApptnSqSEGWFjgU6cKdoTMkJlvzuqexAPKGISFYp4OBTxcMRLqzImJn2giBMkhex0KTPCxgBFnCna86sZE+cDRTycJzrW9lDEw6GIh/M0ojnMJEEo4kwJMcTE5FoeUMTDEV+OmEKhulAibupZTQzZGoo4QThLivSBIs4UdneJgyIeTpTliCFEzJtEHlDEwymyMAASZyHel2fZWrIBijhR2F0mvlDEw1Fx4q4ZUyPaj4l0QBEP51epjhnifXHG1nAoYrISjN9SxHlAEWcM42YCKOLhRC0gz3nbhCJOFK7nJb5QxMOJkp3WJlT2m+PEw6GIhxNtsgeHmQigiAnJHIqYRKdre1OyGYp4ICggr9Gl9Rk+0uxOh+yqe25vStZAEScKx4CJLxQxIZlDEcsgXkB+TDTdaQ6KbwlFnDGMiQmgiAnJHIpYBvEC8kxsEV8oYhnEC8insB9TKDj1chgUccZo78cEcTFhlz4UsQwPnMNMYkERE5I5FHGixJ52GRLGxMOgiGUQX46oHe/6wMIEeUARy1BkAXmW/8kDijhjWBSAAIpYhiKdOBTc3nQYFLEMRRaQT2GfZNINRZwoKczG4j7JeUARJ8qYhpjIMChiGThjawAcJx4GRUzWwpVUeUARyxAtOw2haS1SoIjzgCKWQVzEvgIqIfnEnRGHQREnyphckCIeBkVM1sLudB5QxAJoFZD3QXOYKYVFGKSbPwwR4+rqytze3prr6+taXHhOumF3ehgUsRDWjXeqqprN5/Pp169f5/ZbE9s4pxDyYrGohY3nnAX1Fop4GBSxIFbH1/YBx3d8jU3CrKh37TG3X+KAqN/BpSHsu7u7+nEVm+JRnA7HbDarH9Gdxk0iR/D37+3t4SnvbiQPrLCn9tizx6k9rir8c3VVnZ6eVvv7+9V0Oq3wY88/WtWPVszVwcFBdXZ2Vj0+PuLb983vz+xx8fnz55ffkTyswOq/Tfq8eD+Hh4f1uS039jjirogkaxoxHkKQaNQQatPA3eNj83+Hy43dfn2Wi4hxPtys/vvvP/d+ZoaQEoFQW8Kedfxs0iJect1Huq48jIkTxMbWiA9dfN2F2vDWkHFiF+vaMADnWNhvHTc5A0JIGzjb/f19dXFxUTteO6YeetibQ4VzG7ouIbpYoUyaZNlZO6Y+Ojqqu8QQl1EUsYt1m6TbFWNdQgbSxNRrM+AQpxkoYrouIYFpJcqgusebm5t6yApJsXVd8FUixs8eHx/TdQmJTTNefdAM9dxDlC6uRvfYNKIFcF04OF2XkIRpxdWny2PVdF1CMmRprJquSwghhBBCCCGEEEIIIYQQQgghhBBCCCGEmP8DJNkUOzUDMysAAAAASUVORK5CYII=;flipH=0;" vertex="1" parent="1">
          <mxGeometry x="359.06999999999994" y="1020" width="73.43" height="110" as="geometry" />
        </mxCell>
        <mxCell id="i6CGsaQ3u0MQ8RbkaiSG-45" value="This sounds like&amp;nbsp;&lt;b&gt;Unconstrained Optimization&lt;/b&gt;" style="shape=callout;whiteSpace=wrap;html=1;perimeter=calloutPerimeter;" vertex="1" parent="1">
          <mxGeometry x="347.5" y="940" width="120" height="80" as="geometry" />
        </mxCell>
      </root>
    </mxGraphModel>
  </diagram>
</mxfile>
